/* XPM */
static char * cona_xpm[] = {
"32 32 12 1",
" 	c #FF00C3",
".	c #7BAD3E",
"+	c #795548",
"@	c #8BC34A",
"#	c #6B4B40",
"$	c #63453B",
"%	c #000000",
"&	c #C22419",
"*	c #FF4F42",
"=	c #F44336",
"-	c #E0332A",
";	c #CF2A21",
"                                ",
"                                ",
"           ..+++                ",
"          ...+++                ",
"         @@..+++##              ",
"         @@@..+###              ",
"         @@@..+###              ",
"          #$$$$$$$%%%           ",
"          $$$$$$$$$$$$          ",
"       %%%&***$%%$==-&%%%       ",
"       &&&-***&&&&==-&&&$       ",
"     %%=****========-;;&&%%     ",
"    %&-**===========-;;&&&&%    ",
"    %-***===========-;;&&&&%    ",
"    %-*=============-;;;;&&%    ",
"    %-*=============-;;;;&&%    ",
"    %-*=============---;;&&%    ",
"    %;*=============---;;&&%    ",
"    %;===============--;;&&%    ",
"    %;===============--;;&&%    ",
"    %;==============---;;&&%    ",
"    %&----------------;;;&&%    ",
"    %&---------------;;;;&&%    ",
"    %&;;;;;;;;;;;;;;;;;&&&&%    ",
"    %&&;;;;;;;;;;;;;;;;&&&&%    ",
"     %%&&&&&&&&&&&&&&&&&&%%     ",
"      %&&&&&&&&&&&&&&&&&&%      ",
"       %%%&&&&$%%$&&&&%%%       ",
"          $&&&%  %&&&$          ",
"           %%%    %%%           ",
"                                ",
"                                "};
